/vscmnt/brussel_pixiu_data/_data_brussel/112/vsc11236/PredSimResults/SUBJ11opt3D/expIG/worker_12.mot
version=1
nRows=11
nColumns=50
inDegrees=yes
endheader
                time	         pelvis_tilt	         pelvis_list	     pelvis_rotation	           pelvis_tx	           pelvis_ty	           pelvis_tz	       hip_flexion_r	     hip_adduction_r	      hip_rotation_r	        knee_angle_r	       ankle_angle_r	         mtp_angle_r	       hip_flexion_l	     hip_adduction_l	      hip_rotation_l	        knee_angle_l	       ankle_angle_l	         mtp_angle_l	    lumbar_extension	      lumbar_bending	     lumbar_rotation	 ercspn_r/activation	 intobl_r/activation	 extobl_r/activation	    abd_r/activation	    add_r/activation	hamstrings_r/activation	bifemsh_r/activation	glut_max_r/activation	iliopsoas_r/activation	rect_fem_r/activation	  vasti_r/activation	gastroc_r/activation	 soleus_r/activation	tib_ant_r/activation	 ercspn_l/activation	 intobl_l/activation	 extobl_l/activation	    abd_l/activation	    add_l/activation	hamstrings_l/activation	bifemsh_l/activation	glut_max_l/activation	iliopsoas_l/activation	rect_fem_l/activation	  vasti_l/activation	gastroc_l/activation	 soleus_l/activation	tib_ant_l/activation	
          0.00000000	         -7.88479555	         -4.22915062	          8.71171681	          0.00000000	          0.92231650	         -0.00628303	         38.11028282	         -0.13453885	         -8.20712585	         -8.51239794	          4.59763196	          0.30988377	        -14.12791676	         -5.49051444	          2.06740123	        -11.62936144	          6.87828526	         39.41413926	        -11.68642591	          2.94687893	         -3.40515260	          0.09449817	          0.29112179	          0.01640407	          0.01171853	          0.32632263	          0.12125478	          0.30555490	          0.03571927	          0.14335814	          0.02558364	          0.00999999	          0.01832760	          0.01171850	          0.59214787	          0.02281849	          0.01000001	          0.01000013	          0.02589606	          0.11269852	          0.02589592	          0.32678343	          0.01891566	          0.40041880	          0.01000001	          0.01114666	          0.19390590	          0.29080504	          0.01439329	
          0.01031105	         -7.86113123	         -4.32781766	          8.84833544	          0.02192811	          0.91987756	         -0.00577724	         38.23433586	          0.04918179	         -8.49366418	        -10.53393996	          3.92629422	          0.34346963	        -14.75238365	         -5.78603149	          1.70564879	        -12.70357527	          5.39830104	         41.58919297	        -11.16977319	          3.26349474	         -3.65534696	          0.08232376	          0.24842905	          0.01399843	          0.01000002	          0.43660768	          0.10347288	          0.26074556	          0.22389007	          0.12233480	          0.02183183	          0.01000000	          0.01563987	          0.01000000	          0.69411891	          0.05067116	          0.00999999	          0.01000000	          0.02209843	          0.23705062	          0.02209831	          0.27886156	          0.01614170	          0.64467227	          0.01000013	          0.01000001	          0.16546977	          0.24815875	          0.01228253	
          0.02062210	         -7.81171128	         -4.39788900	          8.92696648	          0.04399673	          0.91755856	         -0.00525359	         38.20549168	          0.18456262	         -8.53696288	        -12.76443664	          3.26722858	          0.24737671	        -15.05720466	         -6.02890136	          1.31304027	        -14.41572688	          3.94435633	         43.56438301	        -10.66791123	          3.56017124	         -3.86997416	          0.07792160	          0.21199719	          0.01194557	          0.15609170	          0.48594552	          0.08829868	          0.22250746	          0.31919697	          0.10439451	          0.01863023	          0.00999999	          0.01334630	          0.01000004	          0.81872675	          0.12144416	          0.01000000	          0.01000000	          0.01885771	          0.21556213	          0.01885762	          0.23796687	          0.01377453	          0.74456068	          0.01000000	          0.01000000	          0.14120378	          0.21176649	          0.01048131	
          0.03093316	         -7.74227298	         -4.44390611	          8.94773554	          0.06586243	          0.91560551	         -0.00464206	         38.09382444	          0.32664921	         -8.56387224	        -14.89742555	          2.64420577	          0.20814611	        -14.89135902	         -6.23290827	          0.92597994	        -16.96774634	          2.53499926	         45.15077312	        -10.21863841	          3.83575705	         -4.04383704	          0.10434155	          0.18090800	          0.01019377	          0.20051257	          0.47736860	          0.07534976	          0.18987695	          0.38388726	          0.08908515	          0.01589814	          0.01000001	          0.01138908	          0.00999999	          0.89257267	          0.11041074	          0.00999999	          0.01000002	          0.01609225	          0.21243709	          0.01609217	          0.20306928	          0.01175451	          0.75256142	          0.01000000	          0.00999999	          0.12049638	          0.18071113	          0.00999999	
          0.04124421	         -7.65214740	         -4.48613360	          8.90945027	          0.08726781	          0.91417924	         -0.00394374	         38.04194083	          0.48400257	         -8.58612561	        -17.10283277	          1.97058915	          0.14676405	        -14.18490289	         -6.42701631	          0.55815901	        -20.45471705	          1.25175453	         45.93995929	         -9.85072922	          4.11849525	         -4.16319879	          0.11637866	          0.15437801	          0.01000000	          0.23251326	          0.47848426	          0.06429979	          0.16203167	          0.39290213	          0.07602089	          0.01356673	          0.09505841	          0.01000000	          0.01000000	          0.93633572	          0.19509953	          0.01000000	          0.01000000	          0.01373233	          0.23034030	          0.01373227	          0.17328938	          0.01003072	          0.64219897	          0.01000000	          0.00999999	          0.10282569	          0.15421001	          0.00999999	
          0.05155526	         -7.54412029	         -4.52767146	          8.81871742	          0.10817088	          0.91338999	         -0.00319399	         37.99953972	          0.66025233	         -8.59871015	        -19.35743470	          1.61512326	          0.05765443	        -12.95933972	         -6.62238474	          0.22445056	        -24.76219328	         -0.13032016	         45.96555084	         -9.55981780	          4.41304348	         -4.23017976	          0.09931184	          0.13173862	          0.00999999	          0.26717293	          0.41527806	          0.05487030	          0.13826987	          0.36906953	          0.06487250	          0.01157724	          0.22817788	          0.01000000	          0.00999999	          0.96227086	          0.23339728	          0.00999999	          0.01000001	          0.01171850	          0.24457861	          0.01171845	          0.15710565	          0.00999999	          0.54802108	          0.01000000	          0.00999999	          0.08774640	          0.13159525	          0.00999999	
          0.06186631	         -7.42639151	         -4.56805351	          8.67258925	          0.12850810	          0.91339246	         -0.00242208	         37.84836655	          0.87996033	         -8.55625271	        -21.46914935	          1.74136078	         -0.01726957	        -11.25654066	         -6.81960850	         -0.07365795	        -29.70053172	         -1.84060250	         45.21559326	         -9.34390421	          4.71914895	         -4.23953480	          0.08474785	          0.11241927	          0.01000000	          0.29261731	          0.36637586	          0.05282477	          0.11799272	          0.31494582	          0.05535901	          0.01000010	          0.30501508	          0.01000000	          0.00999999	          0.87669518	          0.21614072	          0.00999999	          0.01000000	          0.00999999	          0.25461317	          0.01000000	          0.15382688	          0.00999999	          0.46765429	          0.01000000	          0.00999999	          0.07487847	          0.11229693	          0.00999999	
          0.07217736	         -7.30838751	         -4.59378075	          8.47416742	          0.14820742	          0.91427061	         -0.00168015	         37.50653523	          1.14432433	         -8.42595235	        -23.27366197	          2.32958587	         -0.06339198	         -9.13389973	         -7.00005250	         -0.31362644	        -35.04948557	         -4.00256173	         43.58681131	         -9.20444879	          5.02560467	         -4.19419565	          0.07231966	          0.09593309	          0.01000000	          0.31441016	          0.31264718	          0.05051297	          0.10068920	          0.26875931	          0.04724066	          0.01000008	          0.41815054	          0.01000000	          0.00999999	          0.74812863	          0.22041405	          0.01000000	          0.02820296	          0.00999999	          0.27658927	          0.01000002	          0.13126839	          0.00999999	          0.39907321	          0.00999999	          0.00999999	          0.06389761	          0.09582868	          0.02193070	
          0.08248842	         -7.19797590	         -4.59752296	          8.22485950	          0.16719456	          0.91608328	         -0.00101324	         36.90034325	          1.44800351	         -8.21656053	        -24.61524393	          3.32058289	          0.00993610	         -6.67546177	         -7.13598692	         -0.43942423	        -40.59655116	         -6.31901999	         40.53501645	         -9.14589418	          5.32575430	         -4.09703622	          0.06171405	          0.08186459	          0.01000000	          0.29254672	          0.26679776	          0.04310532	          0.08592322	          0.22934600	          0.04031286	          0.01000005	          0.46204732	          0.01000000	          0.00999999	          0.63841625	          0.23597943	          0.06694445	          0.11709709	          0.00999999	          0.23602772	          0.01000001	          0.11201804	          0.00999999	          0.34054949	          0.08170911	          0.00999999	          0.05452708	          0.08177549	          0.24003522	
          0.09279947	         -7.10065749	         -4.59189890	          7.92881419	          0.18539549	          0.91875455	         -0.00043807	         36.03357868	          1.78941199	         -7.95427178	        -25.43479325	          4.45574945	          0.20940175	         -4.01875353	         -7.17546462	         -0.37259901	        -46.13327936	         -7.87076129	         35.73971564	         -9.17590939	          5.62631359	         -3.95151735	          0.05266374	          0.06985923	          0.00999999	          0.24964504	          0.22767212	          0.03678398	          0.07332266	          0.19571262	          0.03440102	          0.01000007	          0.46368087	          0.01000000	          0.00999999	          0.54479309	          0.20137331	          0.10560391	          0.16745416	          0.00999999	          0.20417936	          0.01000000	          0.14642628	          0.00999999	          0.29060822	          0.19612613	          0.00999999	          0.05902116	          0.06978319	          0.29087926	
          0.10311052	         -7.01857804	         -4.58120310	          7.59238002	          0.20284284	          0.92215511	          0.00003608	         34.94817174	          2.15453807	         -7.65374046	        -25.75905477	          5.49705363	          0.48668031	         -1.30676642	         -7.06832547	         -0.14632912	        -51.37493349	         -7.87705855	         31.24541055	         -9.29464831	          5.92422054	         -3.76415503	          0.04494065	          0.05961444	          0.01000000	          0.21303483	          0.19428422	          0.05469574	          0.06256996	          0.16701154	          0.02935614	          0.01000003	          0.44737575	          0.01000000	          0.00999999	          0.46489968	          0.17184210	          0.13090970	          0.18081610	          0.00999999	          0.19007346	          0.01000000	          0.16451280	          0.00999999	          0.24799079	          0.29047098	          0.00999999	          0.05620850	          0.05954955	          0.32981539	
